# Blender v2.93.1 OBJ File: 'cockpit3.blend'
# www.blender.org
o Cockpit.003
v 0.196848 -0.221873 0.157482
v 0.236219 -0.221873 0.157482
v 0.236222 -0.261243 -0.157479
v 0.551191 -0.261243 -1.141725
v 0.236222 -0.261243 -0.157479
v 0.118107 -0.221873 0.157482
v 0.118109 -0.536832 0.000001
v 0.078738 -0.221873 0.000001
v 0.078739 -0.300612 -0.039369
v -0.118111 -0.221873 0.157479
v -0.078739 -0.300612 -0.039370
v -0.118109 -0.536832 -0.000001
v -0.078738 -0.221873 -0.000002
v -0.551169 -0.261243 -1.141735
v -0.236221 -0.221873 0.157477
v -0.236219 -0.261243 -0.157483
v -0.196849 -0.221873 0.157478
v 0.236222 -0.536832 -0.275590
v 0.196851 -0.536832 0.000003
v -0.196848 -0.536832 -0.000002
v -0.236217 -0.536832 -0.275594
v -0.000009 -0.339982 1.141729
vt 0.122720 0.375023
vt 0.002025 0.374166
vt 0.121123 0.250063
vt 0.000716 0.374978
vt 0.000111 0.250044
vt 0.121388 0.249643
vt 0.312112 0.249787
vt 0.312513 0.125014
vt 0.437285 0.250055
vt 0.437436 0.125417
vt 0.437420 0.250060
vt 0.312398 0.125119
vt 0.687442 0.249205
vt 0.562745 0.124675
vt 0.687231 0.125122
vt 0.687488 0.249440
vt 0.562973 0.249840
vt 0.999609 0.250293
vt 0.999970 0.375081
vt 0.878932 0.250065
vt 0.878032 0.374746
vt 0.120452 0.124616
vt 0.250248 0.125236
vt 0.249395 0.250071
vt 0.250474 0.125359
vt 0.767552 0.765611
vt 0.724466 0.523479
vt 0.919831 0.765514
vt 0.724419 0.523501
vt 0.963089 0.523457
vt 0.724417 0.523479
vt 0.963077 0.523409
vt 0.767567 0.765569
vt 0.960972 0.523256
vt 0.919805 0.765518
vt 0.750591 0.249990
vt 0.750037 0.124889
vt 0.750230 0.125083
vt 0.878905 0.124959
vt 0.878932 0.250017
vt 0.999893 0.250208
vt 0.312478 0.375031
vt 0.249521 0.374770
vt 0.687427 0.125148
vt 0.750138 0.374883
vt 0.687728 0.375012
vt 0.750156 0.374810
vt 0.750025 0.125005
vt 0.619639 0.344143
vt 0.499464 0.635711
vt 0.378018 0.344505
vt 0.250008 0.000012
vt 0.249972 0.124974
vt 0.229085 0.125048
vt 0.158599 0.124809
vt 0.125189 0.124627
vt 0.125124 0.124825
vt 0.124400 0.000088
vn -0.4628 0.7044 -0.5383
vn -0.1839 0.9754 -0.1219
vn -0.8166 0.5405 -0.2027
vn -0.7549 0.6097 -0.2415
vn -0.8165 0.5406 -0.2027
vn 0.3246 0.8651 -0.3825
vn 0.4965 0.0926 -0.8631
vn 0.6626 0.5806 -0.4732
vn 0.4073 0.1705 -0.8973
vn -0.6625 0.5804 -0.4735
vn -0.4964 0.0926 -0.8631
vn -0.4072 0.1705 -0.8973
vn -0.3244 0.8651 -0.3825
vn 0.7549 0.6097 -0.2416
vn 0.1838 0.9754 -0.1219
vn 0.8165 0.5406 -0.2027
vn 0.4627 0.7044 -0.5382
vn -0.9702 0.0954 -0.2227
vn -0.8354 0.2433 -0.4929
vn -0.8354 0.2458 -0.4916
vn 0.8354 0.2424 -0.4933
vn 0.9702 0.0954 -0.2226
vn -0.0000 0.9929 0.1191
vn 0.0128 0.9999 -0.0082
vn -0.0361 0.9713 -0.2350
vn 0.2080 0.9781 -0.0034
vn -0.3204 0.9448 0.0691
vn 0.0798 0.8256 -0.5585
vn -0.0128 0.9999 -0.0081
s 1
f 1/1/1 2/2/2 3/3/3
f 2/4/2 4/5/4 5/6/5
f 6/7/6 7/8/7 8/9/8
f 7/10/7 9/11/9 8/12/8
f 10/13/10 11/14/11 12/15/12
f 10/16/10 13/17/13 11/14/11
f 14/18/14 15/19/15 16/20/16
f 15/19/15 17/21/17 16/20/16
f 5/6/5 4/5/4 18/22/18
f 19/23/19 5/6/5 18/22/18
f 1/24/1 3/3/3 19/25/20
f 9/26/9 7/27/7 11/28/11
f 11/28/11 7/29/7 12/30/12
f 10/31/10 6/32/6 13/33/13
f 13/33/13 6/34/6 8/35/8
f 17/36/17 20/37/21 16/20/16
f 20/38/21 21/39/22 16/20/16
f 16/40/16 21/39/22 14/41/14
f 19/25/20 6/42/6 1/43/1
f 6/42/6 19/25/20 7/8/7
f 12/44/12 17/45/17 10/46/10
f 17/47/17 12/44/12 20/48/21
f 15/49/23 22/50/23 2/51/23
f 21/52/24 20/53/25 12/54/26 7/55/27 19/56/28
f 19/57/28 18/58/29 21/52/24
