# Blender v2.93.1 OBJ File: 'metal_asteroid.blend'
# www.blender.org
o metal_asteroid
v 43.768154 36.571373 47.242653
v 53.013615 45.171799 -29.824705
v 43.959625 99.614815 19.397467
v -53.013626 49.420540 -15.510187
v -4.601131 91.277046 -46.785667
v 5.049044 6.508867 -28.592257
v -14.756168 54.436779 56.656715
v -28.096161 106.355057 14.878817
vt 0.000000 1.000000
vt 1.000000 1.000000
vt 1.000000 0.000000
vt 0.000000 1.000000
vt 0.998047 0.000000
vt 0.998047 1.000000
vt 0.000000 1.000000
vt 0.998047 0.000000
vt 1.000000 1.000000
vt 1.000000 1.000000
vt 1.000000 0.000000
vt 1.000000 1.000000
vt 1.000000 0.000000
vt 1.000000 1.000000
vt 0.000000 1.000000
vt 0.998047 0.000000
vt 0.998047 1.000000
vt 0.998047 1.000000
vt 0.000000 1.000000
vt 1.000000 1.000000
vt 1.000000 0.000000
vn 0.9908 0.0521 0.1247
vn -0.3758 -0.2352 -0.8964
vn -0.8787 0.1412 0.4560
vn -0.1950 -0.8736 0.4459
vn 0.2610 0.3894 0.8833
vn -0.7335 0.5408 -0.4117
vn 0.1312 -0.1937 -0.9722
vn -0.5129 -0.7937 0.3271
vn 0.1036 0.9745 -0.1988
vn 0.6273 -0.7787 -0.0116
vn 0.0100 0.6284 0.7778
vn 0.6199 0.5804 -0.5280
s off
f 1/1/1 2/2/1 3/3/1
f 4/4/2 5/5/2 6/6/2
f 7/7/3 8/8/3 4/9/3
f 1/10/4 7/7/4 6/11/4
f 3/3/5 7/12/5 1/1/5
f 5/13/6 4/4/6 8/14/6
f 2/15/7 6/16/7 5/17/7
f 4/18/8 6/16/8 7/7/8
f 8/14/9 3/19/9 5/13/9
f 6/11/10 2/15/10 1/10/10
f 3/20/11 8/21/11 7/7/11
f 3/19/12 2/2/12 5/13/12
